# This file uses centimeters as units for non-parametric coordinates.

v 0.000000 -1.697056 0.000000
v 0.565686 -1.131370 0.000000
v 1.131371 -0.565686 0.800000
v 1.697056 0.000000 0.000000
v -0.565686 -1.131370 0.000000
v 0.000000 -0.565686 0.000000
v 0.565686 0.000000 0.800000
v 1.131370 0.565686 0.000000
v -1.131371 -0.565686 0.000000
v -0.565686 0.000000 0.000000
v 0.000000 0.565686 0.000000
v 0.565686 1.131371 0.000000
v -1.697056 0.000000 0.000000
v -1.131370 0.565686 0.000000
v -0.565686 1.131371 0.000000
v 0.000000 1.697056 0.000000
vt 0.000000 0.000000
vt 0.333333 0.000000
vt 0.333333 0.333333
vt 0.000000 0.333333
vt 0.666667 0.000000
vt 0.666667 0.333333
vt 1.000000 0.000000
vt 1.000000 0.333333
vt 0.333333 0.666667
vt 0.000000 0.666667
vt 0.666667 0.666667
vt 1.000000 0.666667
vt 0.333333 1.000000
vt 0.000000 1.000000
vt 0.666667 1.000000
vt 1.000000 1.000000
vn 0.000000 0.000000 1.000000
vn -0.270598 -0.270598 0.923880
vn -0.289735 -0.134467 0.947614
vn 0.000000 0.000000 1.000000
vn -0.270598 -0.270598 0.923880
vn 0.000000 0.000000 1.000000
vn -0.183013 0.183013 0.965926
vn -0.289735 -0.134467 0.947614
vn 0.000000 0.000000 1.000000
vn 0.500000 0.500000 0.707107
vn 0.258819 0.557678 0.788675
vn -0.183013 0.183013 0.965926
vn 0.000000 0.000000 1.000000
vn -0.289735 -0.134467 0.947614
vn -0.149576 0.000000 0.988750
vn 0.000000 0.000000 1.000000
vn -0.289735 -0.134467 0.947614
vn -0.183013 0.183013 0.965926
vn -0.155051 0.155051 0.975663
vn -0.149576 0.000000 0.988750
vn -0.183013 0.183013 0.965926
vn 0.258819 0.557678 0.788675
vn 0.000000 0.302905 0.953021
vn -0.155051 0.155051 0.975663
vn 0.000000 0.000000 1.000000
vn -0.149576 0.000000 0.988750
vn 0.000000 0.000000 1.000000
vn 0.000000 0.000000 1.000000
vn -0.149576 0.000000 0.988750
vn -0.155051 0.155051 0.975663
vn 0.000000 0.000000 1.000000
vn 0.000000 0.000000 1.000000
vn -0.155051 0.155051 0.975663
vn 0.000000 0.302905 0.953021
vn 0.000000 0.000000 1.000000
vn 0.000000 0.000000 1.000000
f 1/1/1 2/2/2 6/3/3 5/4/4
f 2/2/5 3/5/6 7/6/7 6/3/8
f 3/5/9 4/7/10 8/8/11 7/6/12
f 5/4/13 6/3/14 10/9/15 9/10/16
f 6/3/17 7/6/18 11/11/19 10/9/20
f 7/6/21 8/8/22 12/12/23 11/11/24
f 9/10/25 10/9/26 14/13/27 13/14/28
f 10/9/29 11/11/30 15/15/31 14/13/32
f 11/11/33 12/12/34 16/16/35 15/15/36
t crease 2/1/0 2 6 2.0
t crease 2/1/0 6 10 2.0
t corner 1/1/0 6 3.0
t interpolateboundary 1/0/0 1

