# This file uses centimeters as units for non-parametric coordinates.

g default
v 1.596037 0.000000 1.006744
v 0.532012 0.000000 1.006744
v -0.532012 0.000000 1.006744
v -1.596037 0.000000 1.006744
v 1.596037 0.000000 0.099249
v 0.532012 0.000000 0.099249
v -0.532012 0.000000 0.099249
v -1.596037 0.000000 0.099249
v 1.596037 0.000000 -0.808247
v 0.532012 0.000000 -0.808247
v -0.532012 0.000000 -0.808247
v -1.596037 0.000000 -0.808247
v 1.596037 0.000000 0.552996
v 1.064024 0.000000 0.552997
v 1.064024 0.000000 1.006744
v 0.532012 0.000000 0.552996
v 1.064024 0.000000 0.099249
v 1.596037 0.000000 -0.354499
v 1.064024 0.000000 -0.354499
v 0.532012 0.000000 -0.354499
v 1.064024 0.000000 -0.808247
v 1.596037 0.000000 -1.261994
v 1.064024 0.000000 -1.261994
v 0.532012 0.000000 -1.261994
vt 0.200000 0.000000
vt 0.400000 0.000000
vt 0.600000 0.000000
vt 0.800000 0.000000
vt 0.200000 0.170578
vt 0.400000 0.170578
vt 0.600000 0.170578
vt 0.800000 0.170578
vt 0.200000 0.341156
vt 0.400000 0.341156
vt 0.600000 0.341156
vt 0.800000 0.341156
vt 0.200000 0.085289
vt 0.300000 0.085289
vt 0.300000 0.000000
vt 0.400000 0.085289
vt 0.300000 0.170578
vt 0.200000 0.255867
vt 0.300000 0.255867
vt 0.400000 0.255867
vt 0.300000 0.341156
vt 0.200000 0.426445
vt 0.300000 0.426445
vt 0.400000 0.426445
vn -0.000000 -1.000000 0.000000
vn -0.000000 -1.000000 0.000000
vn -0.000000 -1.000000 0.000000
vn -0.000000 -1.000000 0.000000
vn -0.000000 -1.000000 0.000000
vn -0.000000 -1.000000 0.000000
vn -0.000000 -1.000000 0.000000
vn -0.000000 -1.000000 0.000000
vn -0.000000 -1.000000 0.000000
vn -0.000000 -1.000000 0.000000
vn -0.000000 -1.000000 0.000000
vn -0.000000 -1.000000 0.000000
vn -0.000000 -1.000000 0.000000
vn -0.000000 -1.000000 0.000000
vn -0.000000 -1.000000 0.000000
vn -0.000000 -1.000000 0.000000
vn -0.000000 -1.000000 0.000000
vn -0.000000 -1.000000 0.000000
vn -0.000000 -1.000000 0.000000
vn -0.000000 -1.000000 0.000000
vn -0.000000 -1.000000 0.000000
vn -0.000000 -1.000000 0.000000
vn -0.000000 -1.000000 0.000000
vn -0.000000 -1.000000 0.000000
vn -0.000000 -1.000000 0.000000
vn -0.000000 -1.000000 0.000000
vn -0.000000 -1.000000 0.000000
vn -0.000000 -1.000000 0.000000
vn -0.000000 -1.000000 0.000000
vn -0.000000 -1.000000 0.000000
vn -0.000000 -1.000000 0.000000
vn -0.000000 -1.000000 0.000000
vn -0.000000 -1.000000 0.000000
vn -0.000000 -1.000000 0.000000
vn -0.000000 -1.000000 0.000000
vn -0.000000 -1.000000 0.000000
vn -0.000000 -1.000000 0.000000
vn -0.000000 -1.000000 0.000000
vn -0.000000 -1.000000 0.000000
vn -0.000000 -1.000000 0.000000
vn -0.000000 -1.000000 0.000000
f 13/13/1 1/1/2 15/15/3 14/14/4
f 3/3/5 4/4/6 8/8/7 7/7/8
f 18/18/9 5/5/10 17/17/11 19/19/12
f 7/7/8 8/8/7 12/12/13 11/11/14
f 22/22/15 9/9/16 21/21/17 23/23/18
f 7/7/8 16/16/19 2/2/20 3/3/5
f 15/15/21 2/2/20 16/16/19 14/14/22
f 16/16/23 6/6/24 17/17/25 14/14/26
f 17/17/11 5/5/10 13/13/27 14/14/28
f 17/17/25 6/6/24 20/20/29 19/19/30
f 20/20/31 10/10/32 21/21/33 19/19/34
f 21/21/17 9/9/16 18/18/35 19/19/36
f 21/21/33 10/10/32 24/24/37 23/23/38
f 11/11/39 24/24/37 10/10/32 20/20/31
f 11/11/14 20/20/40 7/7/8
f 7/7/41 20/20/29 6/6/24 16/16/23
t hole 8/0/0 15 2 7 8 9 5 13 14
t interpolateboundary 1/0/0 1

