# This file uses centimeters as units for non-parametric coordinates.

mtllib crazy_plane2.mtl
g default
v 0.166667 -0.000000 0.500000
v 0.500000 -0.000000 0.500000
v -0.166667 -0.000000 0.250000
v 0.166667 -0.000000 0.250000
v 0.500000 -0.000000 0.250000
v -0.166667 0.000000 0.000000
v 0.500000 0.000000 0.000000
v -0.166667 0.000000 -0.250000
v 0.166667 0.000000 -0.250000
vt 0.666667 0.000000
vt 1.000000 0.000000
vt 0.333333 0.250000
vt 0.666667 0.250000
vt 1.000000 0.250000
vt 0.333333 0.500000
vt 1.000000 0.500000
vt 0.333333 0.750000
vt 0.666667 0.750000
vn 0.000000 1.000000 0.000000
vn 0.000000 1.000000 0.000000
vn 0.000000 1.000000 0.000000
vn 0.000000 1.000000 0.000000
vn 0.000000 1.000000 0.000000
vn 0.000000 1.000000 0.000000
vn 0.000000 1.000000 0.000000
vn 0.000000 1.000000 0.000000
vn 0.000000 1.000000 0.000000
vn 0.000000 1.000000 0.000000
vn 0.000000 1.000000 0.000000
vn 0.000000 1.000000 0.000000
vn 0.000000 1.000000 0.000000
s 1
g pPlane1
usemtl initialShadingGroup
f 1/1/1 2/2/2 5/5/3 4/4/4
s off
f 7/7/5 9/9/6 8/8/7 6/6/8 4/4/9
f 3/3/10 4/4/11 6/6/12
s 1
f 4/4/4 5/5/3 7/7/13
