# This file uses centimeters as units for non-parametric coordinates.
v -0.500000 -0.125000 0.000000 
v -0.250000 -0.125000 0.000000 
v 0.000000 -0.125000 0.000000 
v 0.250000 -0.125000 0.000000 
v 0.500000 -0.125000 0.000000 
v -0.500000 0.125000 0.000000 
v -0.250000 0.125000 0.000000 
v 0.000000 0.125000 0.000000 
v 0.250000 0.125000 0.000000 
v 0.500000 0.125000 0.000000 
vt 0.000000 0.000000 
vt 0.250000 0.000000 
vt 0.500000 0.000000 
vt 0.750000 0.000000 
vt 1.000000 0.000000 
vt 0.000000 0.250000 
vt 0.250000 0.250000 
vt 0.500000 0.250000 
vt 0.750000 0.250000 
vt 1.000000 0.250000 
vn 0.000000 0.000000 1.000000 
 vn 0.000000 0.000000 1.000000 
vn 0.000000 0.000000 1.000000 
vn 0.000000 0.000000 1.000000 
vn 0.000000 0.000000 1.000000 
vn 0.000000 0.000000 1.000000 
vn 0.000000 0.000000 1.000000 
vn 0.000000 0.000000 1.000000 
vn 0.000000 0.000000 1.000000 
vn 0.000000 0.000000 1.000000 
f 1/1/1 2/2/2 7/7/3 6/6/4 
f 2/2/2 3/3/5 8/8/6 7/7/3 
f 3/3/5 4/4/7 9/9/8 8/8/6 
f 4/4/7 5/5/9 10/10/10 9/9/8 
