# This file uses centimeters as units for non-parametric coordinates.

v 0.500000 0.000000 0.500000
v 0.500000 0.500000 -0.500000
v 0.000000 0.500000 0.500000
v -0.500000 -0.500000 0.500000
v 0.500000 -0.500000 0.500000
v -0.500000 0.500000 0.500000
v -0.500000 0.500000 -0.500000
v -0.500000 -0.500000 -0.500000
v 0.500000 -0.500000 -0.500000
v 0.250000 0.250000 0.500000
vt 0.000000 0.000000
vt 1.000000 0.000000
vt 0.200000 0.600000
vt 0.375000 0.000000
vt 0.625000 0.000000
vt 0.625000 0.125000
vt 0.500000 0.250000
vt 0.375000 0.250000
vt 0.625000 0.500000
vt 0.375000 0.500000
vt 0.625000 0.750000
vt 0.375000 0.750000
vt 0.625000 1.000000
vt 0.375000 1.000000
vt 0.125000 0.000000
vt 0.125000 0.250000
vt 0.875000 0.000000
vt 0.875000 0.250000
vt 0.100000 0.300000
vt 0.562500 0.187500
vn 0.666667 0.666667 0.333333
vn 0.666667 0.666667 0.333333
vn 0.666667 0.666667 0.333333
vn 0.666667 0.666667 0.333333
vn 0.000000 -0.000000 1.000000
vn 0.000000 -0.000000 1.000000
vn 0.000000 -0.000000 1.000000
vn 0.000000 -0.000000 1.000000
vn 0.000000 1.000000 0.000000
vn 0.000000 1.000000 0.000000
vn 0.000000 1.000000 0.000000
vn 0.000000 1.000000 0.000000
vn 0.000000 -1.000000 0.000000
vn 0.000000 -1.000000 0.000000
vn 0.000000 -1.000000 0.000000
vn 0.000000 -1.000000 0.000000
vn -1.000000 0.000000 0.000000
vn -1.000000 0.000000 0.000000
vn -1.000000 0.000000 0.000000
vn -1.000000 0.000000 0.000000
vn 1.000000 0.000000 0.000000
vn 1.000000 0.000000 0.000000
vn 1.000000 0.000000 0.000000
vn 1.000000 0.000000 0.000000
vn 0.000000 0.000000 1.000000
vn 0.000000 0.000000 1.000000
vn 0.000000 0.000000 1.000000
vn 0.000000 0.000000 1.000000
s off
f 1/1/1 2/2/2 3/3/3 10/19/4
f 4/4/5 5/5/6 1/6/7 10/20/8
f 6/8/9 3/7/10 2/9/11 7/10/12
f 8/12/13 9/11/14 5/13/15 4/14/16
f 8/15/17 4/4/18 6/8/19 7/16/20
f 5/5/21 9/17/22 2/18/23 1/6/24
f 4/4/25 10/20/26 3/7/27 6/8/28
