v 1.000000 1.000000 -0.000000
v 1.000000 0.000000 0.000000
v 1.000000 -1.000000 0.000000
v 0.000000 1.000000 -0.000000
v 0.000000 0.000000 1.527310
v 0.000000 -1.000000 0.000000
v -1.000000 2.000000 0.000000
v -1.000000 1.000000 -0.000000
v -1.000000 0.000000 1.527310
v -1.000000 -1.000000 0.000000
v -2.000000 2.000000 -0.000000
v -2.000000 1.000000 -0.000000
v -2.000000 0.000000 0.000000
v -2.000000 -1.000000 0.000000
vt 1.000000 1.000000
vt 1.000000 0.000000
vt 1.000000 -1.000000
vt 0.000000 1.000000
vt 0.000000 0.000000
vt 0.000000 -1.000000
vt -1.000000 2.000000
vt -1.000000 1.000000
vt -1.000000 0.000000
vt -1.000000 -1.000000
vt -2.000000 2.000000
vt -2.000000 1.000000
vt -2.000000 0.000000
vt -2.000000 -1.000000
vn 0.518841 0.518841 0.679418
vn 0.606923 0.000000 0.794761
vn 0.518841 -0.518841 0.679418
vn 0.272980 0.713157 0.645669
vn 0.282605 0.000000 0.959236
vn 0.272980 -0.713157 0.645669
vn -0.000000 -0.000000 1.000000
vn -0.195173 0.509888 0.837808
vn -0.282605 -0.000000 0.959236
vn -0.272980 -0.713157 0.645669
vn -0.000000 -0.000000 1.000000
vn -0.283100 0.283100 0.916356
vn -0.606923 0.000000 0.794761
vn -0.518841 -0.518841 0.679418
s off
f 2/2/2 1/1/1 4/4/4 5/5/5
f 3/3/3 2/2/2 5/5/5 6/6/6
f 5/5/5 4/4/4 8/8/8 9/9/9
f 6/6/6 5/5/5 9/9/9 10/10/10
f 8/8/8 7/7/7 11/11/11 12/12/12
f 9/9/9 8/8/8 12/12/12 13/13/13
f 10/10/10 9/9/9 13/13/13 14/14/14
t crease 2/1/0 4 8 0.900000
